<svg xmlns="http://www.w3.org/2000/svg" viewBox="0 0 18 18" shape-rendering="crispEdges" width="512" height="512"><rect x="6" y="0" width="1" height="1" fill="#9EF01A"></rect><rect x="7" y="0" width="1" height="1" fill="#9EF01A"></rect><rect x="8" y="0" width="1" height="1" fill="#9EF01A"></rect><rect x="9" y="0" width="1" height="1" fill="#9EF01A"></rect><rect x="10" y="0" width="1" height="1" fill="#9EF01A"></rect><rect x="11" y="0" width="1" height="1" fill="#9EF01A"></rect><rect x="12" y="0" width="1" height="1" fill="#9EF01A"></rect><rect x="5" y="1" width="1" height="1" fill="#9EF01A"></rect><rect x="6" y="1" width="1" height="1" fill="#9EF01A"></rect><rect x="7" y="1" width="1" height="1" fill="#9EF01A"></rect><rect x="8" y="1" width="1" height="1" fill="#9EF01A"></rect><rect x="9" y="1" width="1" height="1" fill="#9EF01A"></rect><rect x="10" y="1" width="1" height="1" fill="#9EF01A"></rect><rect x="11" y="1" width="1" height="1" fill="#9EF01A"></rect><rect x="12" y="1" width="1" height="1" fill="#9EF01A"></rect><rect x="13" y="1" width="1" height="1" fill="#9EF01A"></rect><rect x="14" y="1" width="1" height="1" fill="#9EF01A"></rect><rect x="5" y="2" width="1" height="1" fill="#9EF01A"></rect><rect x="6" y="2" width="1" height="1" fill="#9EF01A"></rect><rect x="7" y="2" width="1" height="1" fill="#9EF01A"></rect><rect x="8" y="2" width="1" height="1" fill="#9EF01A"></rect><rect x="9" y="2" width="1" height="1" fill="#9EF01A"></rect><rect x="10" y="2" width="1" height="1" fill="#9EF01A"></rect><rect x="11" y="2" width="1" height="1" fill="#9EF01A"></rect><rect x="12" y="2" width="1" height="1" fill="#9EF01A"></rect><rect x="13" y="2" width="1" height="1" fill="#9EF01A"></rect><rect x="14" y="2" width="1" height="1" fill="#9EF01A"></rect><rect x="15" y="2" width="1" height="1" fill="#9EF01A"></rect><rect x="4" y="3" width="1" height="1" fill="#9EF01A"></rect><rect x="5" y="3" width="1" height="1" fill="#9EF01A"></rect><rect x="6" y="3" width="1" height="1" fill="#9EF01A"></rect><rect x="7" y="3" width="1" height="1" fill="#9EF01A"></rect><rect x="8" y="3" width="1" height="1" fill="#9EF01A"></rect><rect x="9" y="3" width="1" height="1" fill="#9EF01A"></rect><rect x="10" y="3" width="1" height="1" fill="#9EF01A"></rect><rect x="11" y="3" width="1" height="1" fill="#9EF01A"></rect><rect x="12" y="3" width="1" height="1" fill="#9EF01A"></rect><rect x="13" y="3" width="1" height="1" fill="#9EF01A"></rect><rect x="14" y="3" width="1" height="1" fill="#9EF01A"></rect><rect x="15" y="3" width="1" height="1" fill="#9EF01A"></rect><rect x="16" y="3" width="1" height="1" fill="#9EF01A"></rect><rect x="0" y="4" width="1" height="1" fill="#9EF01A"></rect><rect x="1" y="4" width="1" height="1" fill="#9EF01A"></rect><rect x="2" y="4" width="1" height="1" fill="#9EF01A"></rect><rect x="3" y="4" width="1" height="1" fill="#9EF01A"></rect><rect x="4" y="4" width="1" height="1" fill="#9EF01A"></rect><rect x="5" y="4" width="1" height="1" fill="#9EF01A"></rect><rect x="6" y="4" width="1" height="1" fill="#9EF01A"></rect><rect x="7" y="4" width="1" height="1" fill="#9EF01A"></rect><rect x="8" y="4" width="1" height="1" fill="#9EF01A"></rect><rect x="9" y="4" width="1" height="1" fill="#9EF01A"></rect><rect x="10" y="4" width="1" height="1" fill="#9EF01A"></rect><rect x="11" y="4" width="1" height="1" fill="#9EF01A"></rect><rect x="12" y="4" width="1" height="1" fill="#9EF01A"></rect><rect x="13" y="4" width="1" height="1" fill="#9EF01A"></rect><rect x="14" y="4" width="1" height="1" fill="#9EF01A"></rect><rect x="15" y="4" width="1" height="1" fill="#9EF01A"></rect><rect x="0" y="5" width="1" height="1" fill="#9EF01A"></rect><rect x="1" y="5" width="1" height="1" fill="#9EF01A"></rect><rect x="2" y="5" width="1" height="1" fill="#9EF01A"></rect><rect x="3" y="5" width="1" height="1" fill="#9EF01A"></rect><rect x="4" y="5" width="1" height="1" fill="#9EF01A"></rect><rect x="5" y="5" width="1" height="1" fill="#9EF01A"></rect><rect x="6" y="5" width="1" height="1" fill="#9EF01A"></rect><rect x="7" y="5" width="1" height="1" fill="#0B0B0B"></rect><rect x="8" y="5" width="1" height="1" fill="#0B0B0B"></rect><rect x="9" y="5" width="1" height="1" fill="#0B0B0B"></rect><rect x="10" y="5" width="1" height="1" fill="#0B0B0B"></rect><rect x="11" y="5" width="1" height="1" fill="#0B0B0B"></rect><rect x="12" y="5" width="1" height="1" fill="#0B0B0B"></rect><rect x="13" y="5" width="1" height="1" fill="#0B0B0B"></rect><rect x="14" y="5" width="1" height="1" fill="#0B0B0B"></rect><rect x="15" y="5" width="1" height="1" fill="#0B0B0B"></rect><rect x="7" y="6" width="1" height="1" fill="#9EF01A"></rect><rect x="8" y="6" width="1" height="1" fill="#9EF01A"></rect><rect x="9" y="6" width="1" height="1" fill="#9EF01A"></rect><rect x="10" y="6" width="1" height="1" fill="#9EF01A"></rect><rect x="11" y="6" width="1" height="1" fill="#9EF01A"></rect><rect x="12" y="6" width="1" height="1" fill="#9EF01A"></rect><rect x="13" y="6" width="1" height="1" fill="#9EF01A"></rect><rect x="14" y="6" width="1" height="1" fill="#9EF01A"></rect><rect x="15" y="6" width="1" height="1" fill="#9EF01A"></rect><rect x="7" y="7" width="1" height="1" fill="#9EF01A"></rect><rect x="8" y="7" width="1" height="1" fill="#9EF01A"></rect><rect x="9" y="7" width="1" height="1" fill="#0B0B0B"></rect><rect x="10" y="7" width="1" height="1" fill="#0B0B0B"></rect><rect x="11" y="7" width="1" height="1" fill="#0B0B0B"></rect><rect x="12" y="7" width="1" height="1" fill="#0B0B0B"></rect><rect x="13" y="7" width="1" height="1" fill="#0B0B0B"></rect><rect x="14" y="7" width="1" height="1" fill="#0B0B0B"></rect><rect x="15" y="7" width="1" height="1" fill="#0B0B0B"></rect><rect x="16" y="7" width="1" height="1" fill="#9EF01A"></rect><rect x="7" y="8" width="1" height="1" fill="#9EF01A"></rect><rect x="8" y="8" width="1" height="1" fill="#9EF01A"></rect><rect x="9" y="8" width="1" height="1" fill="#9EF01A"></rect><rect x="10" y="8" width="1" height="1" fill="#9EF01A"></rect><rect x="11" y="8" width="1" height="1" fill="#0B0B0B"></rect><rect x="12" y="8" width="1" height="1" fill="#0B0B0B"></rect><rect x="13" y="8" width="1" height="1" fill="#0B0B0B"></rect><rect x="14" y="8" width="1" height="1" fill="#0B0B0B"></rect><rect x="15" y="8" width="1" height="1" fill="#9EF01A"></rect><rect x="16" y="8" width="1" height="1" fill="#9EF01A"></rect><rect x="17" y="8" width="1" height="1" fill="#9EF01A"></rect><rect x="7" y="9" width="1" height="1" fill="#9EF01A"></rect><rect x="8" y="9" width="1" height="1" fill="#9EF01A"></rect><rect x="9" y="9" width="1" height="1" fill="#9EF01A"></rect><rect x="10" y="9" width="1" height="1" fill="#9EF01A"></rect><rect x="11" y="9" width="1" height="1" fill="#9EF01A"></rect><rect x="12" y="9" width="1" height="1" fill="#9EF01A"></rect><rect x="13" y="9" width="1" height="1" fill="#9EF01A"></rect><rect x="14" y="9" width="1" height="1" fill="#9EF01A"></rect><rect x="15" y="9" width="1" height="1" fill="#9EF01A"></rect><rect x="16" y="9" width="1" height="1" fill="#9EF01A"></rect><rect x="17" y="9" width="1" height="1" fill="#9EF01A"></rect><rect x="7" y="10" width="1" height="1" fill="#9EF01A"></rect><rect x="8" y="10" width="1" height="1" fill="#9EF01A"></rect><rect x="9" y="10" width="1" height="1" fill="#9EF01A"></rect><rect x="10" y="10" width="1" height="1" fill="#9EF01A"></rect><rect x="11" y="10" width="1" height="1" fill="#9EF01A"></rect><rect x="12" y="10" width="1" height="1" fill="#9EF01A"></rect><rect x="13" y="10" width="1" height="1" fill="#9EF01A"></rect><rect x="14" y="10" width="1" height="1" fill="#9EF01A"></rect><rect x="15" y="10" width="1" height="1" fill="#9EF01A"></rect><rect x="7" y="11" width="1" height="1" fill="#9EF01A"></rect><rect x="8" y="11" width="1" height="1" fill="#9EF01A"></rect><rect x="9" y="11" width="1" height="1" fill="#9EF01A"></rect><rect x="10" y="11" width="1" height="1" fill="#9EF01A"></rect><rect x="11" y="11" width="1" height="1" fill="#9EF01A"></rect><rect x="12" y="11" width="1" height="1" fill="#9EF01A"></rect><rect x="13" y="11" width="1" height="1" fill="#9EF01A"></rect><rect x="14" y="11" width="1" height="1" fill="#9EF01A"></rect><rect x="15" y="11" width="1" height="1" fill="#9EF01A"></rect><rect x="7" y="12" width="1" height="1" fill="#9EF01A"></rect><rect x="8" y="12" width="1" height="1" fill="#9EF01A"></rect><rect x="9" y="12" width="1" height="1" fill="#9EF01A"></rect><rect x="10" y="12" width="1" height="1" fill="#9EF01A"></rect><rect x="11" y="12" width="1" height="1" fill="#9EF01A"></rect><rect x="12" y="12" width="1" height="1" fill="#9EF01A"></rect><rect x="13" y="12" width="1" height="1" fill="#9EF01A"></rect><rect x="14" y="12" width="1" height="1" fill="#9EF01A"></rect><rect x="15" y="12" width="1" height="1" fill="#9EF01A"></rect><rect x="7" y="13" width="1" height="1" fill="#9EF01A"></rect><rect x="8" y="13" width="1" height="1" fill="#9EF01A"></rect><rect x="9" y="13" width="1" height="1" fill="#9EF01A"></rect><rect x="10" y="13" width="1" height="1" fill="#9EF01A"></rect><rect x="11" y="13" width="1" height="1" fill="#9EF01A"></rect><rect x="12" y="13" width="1" height="1" fill="#9EF01A"></rect><rect x="13" y="13" width="1" height="1" fill="#9EF01A"></rect><rect x="14" y="13" width="1" height="1" fill="#9EF01A"></rect><rect x="15" y="13" width="1" height="1" fill="#9EF01A"></rect><rect x="8" y="14" width="1" height="1" fill="#9EF01A"></rect><rect x="9" y="14" width="1" height="1" fill="#9EF01A"></rect><rect x="10" y="14" width="1" height="1" fill="#9EF01A"></rect><rect x="11" y="14" width="1" height="1" fill="#9EF01A"></rect><rect x="12" y="14" width="1" height="1" fill="#9EF01A"></rect><rect x="13" y="14" width="1" height="1" fill="#9EF01A"></rect><rect x="14" y="14" width="1" height="1" fill="#9EF01A"></rect><rect x="15" y="14" width="1" height="1" fill="#9EF01A"></rect></svg>